<svg xmlns="http://www.w3.org/2000/svg" viewBox="0 0 73985.49 15790.58">
	<path fill="#3c9" d="M0 .06h15790.53v15790.53H0z" />
	<path fill="#033" fill-rule="nonzero"
		d="M1265.53 7046.34h5742.32c93.45 0 169.78-76.33 169.78-169.78V1996.44c0-467.56 381.31-848.86 848.86-848.86h6498.5c233.78 0 424.46 190.68 424.46 424.4v849.1c0 233.72-190.68 424.46-424.46 424.46H9045.37c-93.45 0-169.78 76.27-169.78 169.73v911.85c0 93.45 76.33 169.78 169.78 169.78h5479.62c233.78 0 424.46 190.68 424.46 424.46v849.04c0 233.78-190.68 424.46-424.46 424.46H9045.37c-93.45 0-169.78 76.33-169.78 169.78v911.91c0 93.45 76.33 169.78 169.78 169.78h5479.62c233.78 0 424.46 190.68 424.46 424.46v849.04c0 233.78-190.68 424.46-424.46 424.46H9045.37c-93.45 0-169.78 76.33-169.78 169.78v911.85c0 93.45 76.33 169.73 169.78 169.73h5479.62c233.78 0 424.46 190.74 424.46 424.46v849.1c0 233.72-190.68 424.4-424.46 424.4H9045.37c-93.45 0-169.78 76.33-169.78 169.78v911.97c0 93.45 76.33 169.73 169.78 169.73h5479.62c233.78 0 424.46 190.74 424.46 424.46v849.1c0 233.72-190.68 424.4-424.46 424.4h-6498.5c-467.56 0-848.86-381.31-848.86-848.86V8914.07c0-93.45-76.33-169.78-169.78-169.78H1265.53c-233.78 0-424.46-190.68-424.46-424.46v-849.04c0-233.78 190.68-424.46 424.46-424.46z" />
	<path fill="#3c9" fill-rule="nonzero"
		d="M19222.46 7400.14c-1064.28-293.17-1761.25-1275.15-1761.25-2369.6h1658.23c0 425.7 304.62 783.92 735.93 804.59 414.66 19.72 814.39-249.13 814.39-686.87 0-669.69-907.6-784.22-1412.94-971.42-701.92-260.05-1244.28-766.51-1447.3-1501.26-211.17-763.91 11.04-1570.27 593.6-2109.61 557.53-516.14 1310.57-678.02 2040.95-490.64 966.34 228.82 1650.14 1038.01 1650.14 2040.95h-1650.14c0-332.25-371.39-490.7-652.45-446.48-450.2 71.31-528.07 608.18-181.53 838.94 891.9 509.77 1649.61 280.89 2351.65 1373.68 486.21 757.24 486.09 1764.85 0 2521.79-584.09 909.14-1719.33 1276.92-2739.28 995.92zm34942.38 5623.42l-4729.46-9.86v-1658.23l4729.46 9.8v1658.29zm5269.22 2767.02h-4287.94V8578.59h1658.23v5553.76h2629.71v1658.23zm2335.24 0h-1658.23V8578.59h1658.23v7211.99zm5131.78-7202.19h1658.23v7202.19h-1795.6l-2354.96-4199.62v4199.62h-1658.23V8608.04h1805.46l2345.1 4189.82V8588.38zm7084.42 1658.29h-2963.31v1089.19h2404.02v1658.23h-2404.02v1138.25h2963.31v1658.23h-4621.54V8598.25l4621.54-9.86v1658.29zM54164.84 4589.02l-4729.46-9.86V2920.93l4729.46 9.74v1658.35zm5269.22 2766.96h-4287.94V144.05h1658.23v5553.7h2629.71v1658.23zm2335.24 0h-1658.23V144.05h1658.23v7211.93zm5131.78-7202.19h1658.23v7202.19h-1795.6l-2354.96-4199.62v4199.62h-1658.23V173.5h1805.46l2345.1 4189.82V153.78zm7084.42 1658.35h-2963.31v1089.13h2404.02v1658.29h-2404.02v1138.19h2963.31v1658.23h-4621.54V163.65l4621.54-9.86v1658.35zM24692.81 7355.99h-1658.29V144.06h1658.29v7211.93zM29824.59 153.8h1658.23v7202.19h-1795.6l-2354.96-4199.62v4199.62h-1658.23V173.51h1805.46l2345.1 4189.82V153.79zm8428.64 3169.4v4032.79h-1668.09v-176.57c-1265.88 452.33-2753.5 72.32-3699.18-873.3-683.51-683.56-1049.88-1585.38-1049.88-2551.19 0-1470.32 878.97-2812.6 2246.98-3355.78 1358.33-539.34 2887.99-242.28 3924.87 794.85l-1177.45 1177.45c-559.18-559.18-1387.79-713.73-2119.41-426.82-734.04 287.56-1226.57 1024.08-1226.57 1810.3 0 518.5 213.06 1017.64 578.95 1383.54 670.1 670.4 1752.04 763.14 2521.67 206.09V4981.5h-1442.4V3323.21h3110.49zm5072.98 4032.79h-4287.94V144.06h1658.23v5553.7h2629.71v1658.23zm5190.64-5543.85h-2963.31v1089.13h2404.02v1658.29h-2404.02v1138.19h2963.31v1658.23h-4621.6V163.65l4621.6-9.86v1658.35zM22573.33 8578.6h1707.29l421.92 7211.99h-1658.23l-176.63-2943.66-1000.82 2943.66h-1658.29l-1059.68-3061.43-196.29 3061.43h-1668.03l461.18-7211.99h1707.29l1579.77 4513.69 1540.51-4513.69zm6684.58 7211.99c-1513.89 0-2711.23-1199.77-2737.62-2708.17V8578.59h1658.23v4493.97c0 599.44 497.37 1059.79 1089.19 1059.79 599.91 0 1059.68-499.49 1059.68-1089.19V8578.59h1658.35v4454.71c26.15 1502.2-1206.79 2731.25-2698.42 2757.28h-29.4zm9324.02 0h-4287.94V8578.6h1658.23v5553.76h2629.71v1658.23zM44707.15 8559v1658.23h-1383.54v5573.36h-1658.23v-5573.36H40291.7V8559h4415.45zm3682 7231.59h-1658.23V8578.6h1658.23v7211.99z" />
</svg>