<svg xmlns="http://www.w3.org/2000/svg" viewBox="0 0 648.04 648.04">
	<path fill="#3c9" d="M0 0h648.04v648.04H0z" />
	<path fill="#033" fill-rule="nonzero"
		d="M51.94 289.18H287.6c3.84 0 6.97-3.13 6.97-6.97V81.93c0-19.19 15.65-34.84 34.84-34.84h266.7c9.59 0 17.42 7.83 17.42 17.42v34.85c0 9.59-7.83 17.42-17.42 17.42H371.23c-3.84 0-6.97 3.13-6.97 6.97v37.42c0 3.84 3.13 6.97 6.97 6.97h224.88c9.59 0 17.42 7.83 17.42 17.42v34.85c0 9.59-7.83 17.42-17.42 17.42H371.23c-3.84 0-6.97 3.13-6.97 6.97v37.43c0 3.84 3.13 6.97 6.97 6.97h224.88c9.59 0 17.42 7.83 17.42 17.42v34.85c0 9.59-7.83 17.42-17.42 17.42H371.23c-3.84 0-6.97 3.13-6.97 6.97v37.42c0 3.84 3.13 6.97 6.97 6.97h224.88c9.59 0 17.42 7.83 17.42 17.42v34.85c0 9.59-7.83 17.42-17.42 17.42H371.23c-3.84 0-6.97 3.13-6.97 6.97v37.43c0 3.84 3.13 6.97 6.97 6.97h224.88c9.59 0 17.42 7.83 17.42 17.42v34.85c0 9.59-7.83 17.42-17.42 17.42h-266.7c-19.19 0-34.84-15.65-34.84-34.84V365.88c0-3.84-3.13-6.97-6.97-6.97H51.94c-9.59 0-17.42-7.83-17.42-17.42v-34.85c0-9.59 7.83-17.42 17.42-17.42z" />
</svg>